<mxfile host="app.diagrams.net" modified="2024-03-12T11:37:07.637Z" agent="Mozilla/5.0 (Windows NT 10.0; Win64; x64) AppleWebKit/537.36 (KHTML, like Gecko) Chrome/122.0.0.0 Safari/537.36" etag="lw-8l1tOsUyXrn-oXACF" version="21.7.4" type="github">
  <diagram name="Page-1" id="1Jpa1P0KFEFP4I3yWMOC">
    <mxGraphModel dx="875" dy="435" grid="1" gridSize="10" guides="1" tooltips="1" connect="1" arrows="1" fold="1" page="1" pageScale="1" pageWidth="827" pageHeight="1169" math="0" shadow="0">
      <root>
        <mxCell id="0" />
        <mxCell id="1" parent="0" />
        <mxCell id="8ivuwwn5s86KPATnS-1n-7" value="" style="edgeStyle=orthogonalEdgeStyle;rounded=1;orthogonalLoop=1;jettySize=auto;html=1;strokeWidth=3;shadow=0;" edge="1" parent="1" source="__jk7moN4oOyNTZqw583-1" target="8ivuwwn5s86KPATnS-1n-6">
          <mxGeometry relative="1" as="geometry" />
        </mxCell>
        <mxCell id="8ivuwwn5s86KPATnS-1n-19" value="then" style="edgeLabel;html=1;align=center;verticalAlign=middle;resizable=0;points=[];" vertex="1" connectable="0" parent="8ivuwwn5s86KPATnS-1n-7">
          <mxGeometry x="-0.22" y="-2" relative="1" as="geometry">
            <mxPoint as="offset" />
          </mxGeometry>
        </mxCell>
        <mxCell id="__jk7moN4oOyNTZqw583-1" value="y" style="shape=process;whiteSpace=wrap;html=1;backgroundOutline=1;fillColor=#dae8fc;strokeColor=#6c8ebf;rounded=1;strokeWidth=3;shadow=0;" parent="1" vertex="1">
          <mxGeometry x="380" y="170" width="120" height="60" as="geometry" />
        </mxCell>
        <mxCell id="__jk7moN4oOyNTZqw583-2" value="" style="ellipse;whiteSpace=wrap;html=1;fillColor=#d5e8d4;strokeColor=#82b366;rounded=1;strokeWidth=3;shadow=0;" parent="1" vertex="1">
          <mxGeometry x="380" y="360" width="120" height="80" as="geometry" />
        </mxCell>
        <mxCell id="__jk7moN4oOyNTZqw583-3" value="" style="shape=flexArrow;endArrow=classic;html=1;rounded=1;exitX=0.5;exitY=1;exitDx=0;exitDy=0;entryX=0.5;entryY=0;entryDx=0;entryDy=0;strokeWidth=3;shadow=0;" parent="1" source="__jk7moN4oOyNTZqw583-1" target="__jk7moN4oOyNTZqw583-2" edge="1">
          <mxGeometry width="50" height="50" relative="1" as="geometry">
            <mxPoint x="420" y="300" as="sourcePoint" />
            <mxPoint x="490" y="290" as="targetPoint" />
          </mxGeometry>
        </mxCell>
        <mxCell id="__jk7moN4oOyNTZqw583-4" value="Actor" style="shape=umlActor;verticalLabelPosition=bottom;verticalAlign=top;html=1;outlineConnect=0;rounded=1;strokeWidth=3;shadow=0;" parent="1" vertex="1">
          <mxGeometry x="425" y="40" width="30" height="90" as="geometry" />
        </mxCell>
        <mxCell id="8ivuwwn5s86KPATnS-1n-13" value="" style="edgeStyle=orthogonalEdgeStyle;rounded=1;orthogonalLoop=1;jettySize=auto;html=1;strokeWidth=3;shadow=0;" edge="1" parent="1" source="8ivuwwn5s86KPATnS-1n-6" target="8ivuwwn5s86KPATnS-1n-12">
          <mxGeometry relative="1" as="geometry" />
        </mxCell>
        <mxCell id="8ivuwwn5s86KPATnS-1n-20" value="or" style="edgeLabel;html=1;align=center;verticalAlign=middle;resizable=0;points=[];" vertex="1" connectable="0" parent="8ivuwwn5s86KPATnS-1n-13">
          <mxGeometry x="-0.3846" y="-2" relative="1" as="geometry">
            <mxPoint as="offset" />
          </mxGeometry>
        </mxCell>
        <mxCell id="8ivuwwn5s86KPATnS-1n-28" style="edgeStyle=orthogonalEdgeStyle;rounded=1;orthogonalLoop=1;jettySize=auto;html=1;exitX=1;exitY=0.5;exitDx=0;exitDy=0;entryX=0;entryY=0.5;entryDx=0;entryDy=0;" edge="1" parent="1" source="8ivuwwn5s86KPATnS-1n-6" target="8ivuwwn5s86KPATnS-1n-26">
          <mxGeometry relative="1" as="geometry" />
        </mxCell>
        <mxCell id="8ivuwwn5s86KPATnS-1n-6" value="y" style="shape=process;whiteSpace=wrap;html=1;backgroundOutline=1;fillColor=#dae8fc;strokeColor=#6c8ebf;rounded=1;strokeWidth=3;shadow=0;" vertex="1" parent="1">
          <mxGeometry x="580" y="170" width="120" height="60" as="geometry" />
        </mxCell>
        <mxCell id="8ivuwwn5s86KPATnS-1n-12" value="" style="shape=tape;whiteSpace=wrap;html=1;strokeWidth=3;size=0.19;fillColor=#d80073;fontColor=#ffffff;strokeColor=#A50040;rounded=1;shadow=0;" vertex="1" parent="1">
          <mxGeometry x="590" y="295" width="100" height="65" as="geometry" />
        </mxCell>
        <mxCell id="8ivuwwn5s86KPATnS-1n-15" value="" style="edgeStyle=orthogonalEdgeStyle;rounded=1;orthogonalLoop=1;jettySize=auto;html=1;strokeWidth=3;shadow=0;" edge="1" parent="1" source="8ivuwwn5s86KPATnS-1n-14" target="8ivuwwn5s86KPATnS-1n-12">
          <mxGeometry relative="1" as="geometry" />
        </mxCell>
        <mxCell id="8ivuwwn5s86KPATnS-1n-14" value="" style="verticalLabelPosition=bottom;verticalAlign=top;html=1;shape=mxgraph.flowchart.or;fillColor=#e3c800;fontColor=#000000;strokeColor=#B09500;rounded=1;strokeWidth=3;shadow=0;" vertex="1" parent="1">
          <mxGeometry x="605" y="400" width="70" height="70" as="geometry" />
        </mxCell>
        <mxCell id="8ivuwwn5s86KPATnS-1n-18" style="edgeStyle=orthogonalEdgeStyle;rounded=1;orthogonalLoop=1;jettySize=auto;html=1;entryX=0;entryY=0.5;entryDx=0;entryDy=0;strokeWidth=3;shadow=0;" edge="1" parent="1" source="8ivuwwn5s86KPATnS-1n-16" target="__jk7moN4oOyNTZqw583-1">
          <mxGeometry relative="1" as="geometry" />
        </mxCell>
        <mxCell id="8ivuwwn5s86KPATnS-1n-16" value="" style="verticalLabelPosition=bottom;verticalAlign=top;html=1;shape=mxgraph.flowchart.on-page_reference;fillColor=#ffe6cc;strokeColor=#d79b00;rounded=1;strokeWidth=3;shadow=0;" vertex="1" parent="1">
          <mxGeometry x="210" y="70" width="60" height="60" as="geometry" />
        </mxCell>
        <mxCell id="8ivuwwn5s86KPATnS-1n-17" value="" style="outlineConnect=0;dashed=0;verticalLabelPosition=bottom;verticalAlign=top;align=center;html=1;shape=mxgraph.aws3.greengrass;fillColor=#5294CF;gradientColor=none;rounded=1;strokeWidth=3;shadow=0;" vertex="1" parent="1">
          <mxGeometry x="210" y="30" width="58.25" height="33" as="geometry" />
        </mxCell>
        <mxCell id="8ivuwwn5s86KPATnS-1n-29" style="edgeStyle=orthogonalEdgeStyle;rounded=1;orthogonalLoop=1;jettySize=auto;html=1;entryX=1;entryY=0.75;entryDx=0;entryDy=0;" edge="1" parent="1" source="8ivuwwn5s86KPATnS-1n-21" target="__jk7moN4oOyNTZqw583-1">
          <mxGeometry relative="1" as="geometry">
            <Array as="points">
              <mxPoint x="340" y="210" />
              <mxPoint x="340" y="250" />
              <mxPoint x="520" y="250" />
              <mxPoint x="520" y="215" />
            </Array>
          </mxGeometry>
        </mxCell>
        <mxCell id="8ivuwwn5s86KPATnS-1n-21" value="y" style="shape=process;whiteSpace=wrap;html=1;backgroundOutline=1;fillColor=#dae8fc;strokeColor=#6c8ebf;rounded=1;strokeWidth=3;shadow=0;" vertex="1" parent="1">
          <mxGeometry x="180" y="170" width="120" height="60" as="geometry" />
        </mxCell>
        <mxCell id="8ivuwwn5s86KPATnS-1n-22" value="" style="ellipse;whiteSpace=wrap;html=1;fillColor=#d5e8d4;strokeColor=#82b366;rounded=1;strokeWidth=3;shadow=0;" vertex="1" parent="1">
          <mxGeometry x="180" y="360" width="120" height="80" as="geometry" />
        </mxCell>
        <mxCell id="8ivuwwn5s86KPATnS-1n-23" value="" style="shape=flexArrow;endArrow=classic;html=1;rounded=1;exitX=0.5;exitY=1;exitDx=0;exitDy=0;entryX=0.5;entryY=0;entryDx=0;entryDy=0;strokeWidth=3;shadow=0;" edge="1" source="8ivuwwn5s86KPATnS-1n-21" target="8ivuwwn5s86KPATnS-1n-22" parent="1">
          <mxGeometry width="50" height="50" relative="1" as="geometry">
            <mxPoint x="220" y="300" as="sourcePoint" />
            <mxPoint x="290" y="290" as="targetPoint" />
          </mxGeometry>
        </mxCell>
        <mxCell id="8ivuwwn5s86KPATnS-1n-24" value="" style="edgeStyle=orthogonalEdgeStyle;rounded=1;orthogonalLoop=1;jettySize=auto;html=1;strokeWidth=3;shadow=0;" edge="1" source="8ivuwwn5s86KPATnS-1n-26" target="8ivuwwn5s86KPATnS-1n-27" parent="1">
          <mxGeometry relative="1" as="geometry" />
        </mxCell>
        <mxCell id="8ivuwwn5s86KPATnS-1n-25" value="or" style="edgeLabel;html=1;align=center;verticalAlign=middle;resizable=0;points=[];" vertex="1" connectable="0" parent="8ivuwwn5s86KPATnS-1n-24">
          <mxGeometry x="-0.3846" y="-2" relative="1" as="geometry">
            <mxPoint as="offset" />
          </mxGeometry>
        </mxCell>
        <mxCell id="8ivuwwn5s86KPATnS-1n-26" value="y" style="shape=process;whiteSpace=wrap;html=1;backgroundOutline=1;fillColor=#dae8fc;strokeColor=#6c8ebf;rounded=1;strokeWidth=3;shadow=0;" vertex="1" parent="1">
          <mxGeometry x="720" y="170" width="120" height="60" as="geometry" />
        </mxCell>
        <mxCell id="8ivuwwn5s86KPATnS-1n-27" value="" style="shape=tape;whiteSpace=wrap;html=1;strokeWidth=3;size=0.19;fillColor=#d80073;fontColor=#ffffff;strokeColor=#A50040;rounded=1;shadow=0;" vertex="1" parent="1">
          <mxGeometry x="730" y="295" width="100" height="65" as="geometry" />
        </mxCell>
      </root>
    </mxGraphModel>
  </diagram>
</mxfile>
